<?xml version="1.0" encoding="UTF-8" standalone="no"?>
<!DOCTYPE svg PUBLIC "-//W3C//DTD SVG 1.1//EN" "http://www.w3.org/Graphics/SVG/1.1/DTD/svg11.dtd">
<svg width="100%" height="100%" viewBox="0 0 230 230" version="1.1" xmlns="http://www.w3.org/2000/svg" xmlns:xlink="http://www.w3.org/1999/xlink" xml:space="preserve" xmlns:serif="http://www.serif.com/" style="fill-rule:evenodd;clip-rule:evenodd;stroke-linecap:round;stroke-linejoin:round;stroke-miterlimit:1.5;">
    <g transform="matrix(1,0,0,1,-25.5,-119.713)">
        <path d="M226.5,290L226.5,183.425L140.5,143.425L54.5,183.425L54.5,291.425L140,330L226.5,290Z" style="fill:rgb(63,246,242);stroke:black;stroke-width:2.67px;"/>
    </g>
    <g transform="matrix(1.82214,0.382392,0.382392,1.17786,-2619.55,-888.908)">
        <path d="M1400,480L1357,460" style="fill:none;stroke:black;stroke-width:5.59px;"/>
    </g>
    <g transform="matrix(1.82214,0.382392,0.382392,1.17786,-2619.55,-997.008)">
        <path d="M1400,480L1357,460" style="fill:none;stroke:black;stroke-width:2.79px;"/>
    </g>
    <g transform="matrix(-1.82214,0.382392,-0.382392,1.17786,2849.55,-997.008)">
        <path d="M1400,480L1357,460" style="fill:none;stroke:black;stroke-width:2.79px;"/>
    </g>
    <g transform="matrix(1.82214,-0.382392,0.382392,-1.17786,-2619.55,1124.43)">
        <path d="M1400,480L1357,460" style="fill:none;stroke:black;stroke-width:5.59px;"/>
    </g>
    <g transform="matrix(-1.1819,-0.0846043,-0.0846043,-1.03935,1843.76,656.622)">
        <path d="M1400,480L1357,460" style="fill:none;stroke:black;stroke-width:8.91px;"/>
    </g>
    <g transform="matrix(-0.808804,0.0889284,0.0889284,-0.958638,1204.64,359.359)">
        <path d="M1400,480L1357,460" style="fill:none;stroke:black;stroke-width:13.36px;"/>
    </g>
    <g transform="matrix(1.82214,-0.382392,0.382392,-1.17786,-2619.55,1232.43)">
        <path d="M1400,480L1357,460" style="fill:none;stroke:black;stroke-width:2.79px;"/>
    </g>
    <g transform="matrix(-1.82214,-0.382392,-0.382392,-1.17786,2849.55,1232.43)">
        <path d="M1400,480L1357,460" style="fill:none;stroke:black;stroke-width:2.79px;"/>
    </g>
    <g transform="matrix(1,0,0,1.08,-1371,-346.688)">
        <path d="M1400,380L1400,480" style="fill:none;stroke:black;stroke-width:10.25px;"/>
    </g>
    <g transform="matrix(1,0,0,1.08,-1285,-306.688)">
        <path d="M1400,380L1400,480" style="fill:none;stroke:black;stroke-width:5.12px;"/>
    </g>
    <g transform="matrix(1,0,0,0.8,-1285,-280.287)">
        <path d="M1400,380L1400,480" style="fill:none;stroke:black;stroke-width:5.89px;"/>
    </g>
    <g transform="matrix(-1.82214,0.382392,-0.382392,1.17786,2849.55,-888.908)">
        <path d="M1400,480L1357,460" style="fill:none;stroke:black;stroke-width:5.59px;"/>
    </g>
    <g transform="matrix(-1,0,0,0.50425,1601,-70.3275)">
        <path d="M1400,380L1400,480" style="fill:none;stroke:black;stroke-width:13.47px;"/>
    </g>
    <g transform="matrix(-1,0,0,0.57575,1601,-155.072)">
        <path d="M1400,380L1400,480" style="fill:none;stroke:black;stroke-width:13.07px;"/>
    </g>
</svg>
