<?xml version="1.0" encoding="UTF-8" standalone="no"?>
<!DOCTYPE svg PUBLIC "-//W3C//DTD SVG 1.1//EN" "http://www.w3.org/Graphics/SVG/1.1/DTD/svg11.dtd">
<svg width="100%" height="100%" viewBox="0 0 230 230" version="1.1" xmlns="http://www.w3.org/2000/svg" xmlns:xlink="http://www.w3.org/1999/xlink" xml:space="preserve" xmlns:serif="http://www.serif.com/" style="fill-rule:evenodd;clip-rule:evenodd;stroke-linecap:round;stroke-linejoin:round;stroke-miterlimit:1.5;">
    <g transform="matrix(1,0,0,1,-25.5,-119.713)">
        <path d="M226.5,290L226.5,183.425L140.5,143.425L54.5,183.425L54.5,291.425L140,330L226.5,290Z" style="fill:rgb(63,246,242);fill-opacity:0.69;"/>
    </g>
    <g transform="matrix(1,0,0,1,-81.5559,-59.197)">
        <path d="M132.357,115.536L183.29,91.41L182.888,160.437L132.223,183.893L132.357,115.536Z" style="fill:rgb(0,214,83);fill-opacity:0.78;stroke:black;stroke-width:5.33px;"/>
    </g>
    <g transform="matrix(-1,0,0,1,310.203,-59.5268)">
        <path d="M132.357,115.536L183.29,91.41L182.888,160.437L132.223,183.893L132.357,115.536Z" style="fill:rgb(0,214,83);fill-opacity:0.78;stroke:black;stroke-width:5.33px;"/>
    </g>
    <g transform="matrix(-6.12323e-17,-1,1,-6.12323e-17,-45.8881,279.293)">
        <path d="M137.316,159.901L160.102,112.855L182.888,160.437L160.37,208.421L137.316,159.901Z" style="fill:rgb(0,214,83);fill-opacity:0.78;stroke:black;stroke-width:5.33px;"/>
    </g>
    <g transform="matrix(-6.12323e-17,-1,1,-6.12323e-17,-46.5892,329.53)">
        <path d="M137.316,159.901L160.102,112.855L182.888,160.437L160.37,208.421L137.316,159.901Z" style="fill:rgb(0,214,83);fill-opacity:0.78;stroke:black;stroke-width:5.33px;"/>
    </g>
    <g transform="matrix(1,0,0,1,-0.268073,15.2797)">
        <path d="M132.357,115.536L183.29,91.41L182.888,160.437L132.223,183.893L132.357,115.536Z" style="fill:rgb(0,214,83);fill-opacity:0.78;stroke:black;stroke-width:5.33px;"/>
    </g>
    <g transform="matrix(-1,0,0,1,230.049,16.1457)">
        <path d="M132.357,115.536L183.29,91.41L182.888,160.437L132.223,183.893L132.357,115.536Z" style="fill:rgb(0,214,83);fill-opacity:0.78;stroke:black;stroke-width:5.33px;"/>
    </g>
    <g transform="matrix(-6.12323e-17,-1,1,-6.12323e-17,-45.1871,229.799)">
        <path d="M137.316,159.901L160.102,112.855L182.888,160.437L160.37,208.421L137.316,159.901Z" style="fill:rgb(0,214,83);fill-opacity:0.78;stroke:black;stroke-width:5.33px;"/>
    </g>
</svg>
