<?xml version="1.0" encoding="UTF-8" standalone="no"?>
<!DOCTYPE svg PUBLIC "-//W3C//DTD SVG 1.1//EN" "http://www.w3.org/Graphics/SVG/1.1/DTD/svg11.dtd">
<svg width="100%" height="100%" viewBox="0 0 230 230" version="1.1" xmlns="http://www.w3.org/2000/svg" xmlns:xlink="http://www.w3.org/1999/xlink" xml:space="preserve" xmlns:serif="http://www.serif.com/" style="fill-rule:evenodd;clip-rule:evenodd;stroke-linecap:round;stroke-linejoin:round;stroke-miterlimit:1.5;">
    <g transform="matrix(4.00885e-17,-0.654695,1,2.84833e-16,-4.81297,98.4294)">
        <path d="M95.096,117.044C95.096,115.398 93.055,114.062 90.541,114.062L14.809,114.062C12.295,114.062 10.253,115.398 10.253,117.044L10.253,123.008C10.253,124.654 12.295,125.991 14.809,125.991L90.541,125.991C93.055,125.991 95.096,124.654 95.096,123.008L95.096,117.044Z" style="fill:rgb(0,204,0);stroke:black;stroke-width:2.37px;"/>
    </g>
    <g transform="matrix(-0.651169,0.307806,0.427358,0.904083,57.4429,25.2683)">
        <path d="M95.096,117.044C95.096,115.398 93.241,114.062 90.956,114.062L14.394,114.062C12.109,114.062 10.253,115.398 10.253,117.044L10.253,123.008C10.253,124.654 12.109,125.991 14.394,125.991L90.956,125.991C93.241,125.991 95.096,124.654 95.096,123.008L95.096,117.044Z" style="fill:rgb(0,204,0);stroke:black;stroke-width:2.3px;"/>
    </g>
    <g transform="matrix(0.656662,0.310403,-0.427358,0.904083,172.51,25.2417)">
        <path d="M95.096,117.044C95.096,115.398 93.256,114.062 90.99,114.062L14.359,114.062C12.093,114.062 10.253,115.398 10.253,117.044L10.253,123.008C10.253,124.654 12.093,125.991 14.359,125.991L90.99,125.991C93.256,125.991 95.096,124.654 95.096,123.008L95.096,117.044Z" style="fill:rgb(0,204,0);stroke:black;stroke-width:2.29px;"/>
    </g>
    <g transform="matrix(1,0,0,1,-25.5,-119.713)">
        <path d="M226.5,290L226.5,183.425L140.5,143.425L54.5,183.425L54.5,291.425L140,330L226.5,290Z" style="fill:rgb(63,246,242);fill-opacity:0.69;"/>
    </g>
    <g transform="matrix(0.734724,0.347302,-0.427358,0.904083,86.7099,-42.1884)">
        <path d="M95.096,117.044C95.096,115.398 93.452,114.062 91.427,114.062L13.923,114.062C11.898,114.062 10.253,115.398 10.253,117.044L10.253,123.008C10.253,124.654 11.898,125.991 13.923,125.991L91.427,125.991C93.452,125.991 95.096,124.654 95.096,123.008L95.096,117.044Z" style="fill:rgb(0,204,0);stroke:black;stroke-width:5.85px;"/>
    </g>
    <g transform="matrix(6.0983e-17,-0.995928,1,4.01376e-16,-91.2618,171.879)">
        <path d="M95.096,117.044C95.096,115.398 93.754,114.062 92.102,114.062L13.248,114.062C11.595,114.062 10.253,115.398 10.253,117.044L10.253,123.008C10.253,124.654 11.595,125.991 13.248,125.991L92.102,125.991C93.754,125.991 95.096,124.654 95.096,123.008L95.096,117.044Z" style="fill:rgb(0,204,0);stroke:black;stroke-width:5.34px;"/>
    </g>
    <g transform="matrix(6.0983e-17,-0.995928,1,4.01376e-16,80.5382,171.879)">
        <path d="M95.096,117.044C95.096,115.398 93.754,114.062 92.102,114.062L13.248,114.062C11.595,114.062 10.253,115.398 10.253,117.044L10.253,123.008C10.253,124.654 11.595,125.991 13.248,125.991L92.102,125.991C93.754,125.991 95.096,124.654 95.096,123.008L95.096,117.044Z" style="fill:rgb(0,204,0);stroke:black;stroke-width:5.34px;"/>
    </g>
    <g transform="matrix(6.0983e-17,-0.995928,1,4.01376e-16,-4.81297,204.879)">
        <path d="M95.096,117.044C95.096,115.398 93.754,114.062 92.102,114.062L13.248,114.062C11.595,114.062 10.253,115.398 10.253,117.044L10.253,123.008C10.253,124.654 11.595,125.991 13.248,125.991L92.102,125.991C93.754,125.991 95.096,124.654 95.096,123.008L95.096,117.044Z" style="fill:rgb(0,204,0);stroke:black;stroke-width:5.34px;"/>
    </g>
    <g transform="matrix(0.734724,0.347302,-0.427358,0.904083,86.7099,64.8116)">
        <path d="M95.096,117.044C95.096,115.398 93.452,114.062 91.427,114.062L13.923,114.062C11.898,114.062 10.253,115.398 10.253,117.044L10.253,123.008C10.253,124.654 11.898,125.991 13.923,125.991L91.427,125.991C93.452,125.991 95.096,124.654 95.096,123.008L95.096,117.044Z" style="fill:rgb(0,204,0);stroke:black;stroke-width:5.85px;"/>
    </g>
    <g transform="matrix(0.704626,0.333075,-0.427358,0.904083,169.019,-85.0425)">
        <path d="M95.096,117.044C95.096,115.398 93.382,114.062 91.27,114.062L14.08,114.062C11.968,114.062 10.253,115.398 10.253,117.044L10.253,123.008C10.253,124.654 11.968,125.991 14.08,125.991L91.27,125.991C93.382,125.991 95.096,124.654 95.096,123.008L95.096,117.044Z" style="fill:rgb(0,204,0);stroke:black;stroke-width:5.95px;"/>
    </g>
    <g transform="matrix(-0.734724,0.347302,0.427358,0.904083,143.525,-42.1884)">
        <path d="M95.096,117.044C95.096,115.398 93.452,114.062 91.427,114.062L13.923,114.062C11.898,114.062 10.253,115.398 10.253,117.044L10.253,123.008C10.253,124.654 11.898,125.991 13.923,125.991L91.427,125.991C93.452,125.991 95.096,124.654 95.096,123.008L95.096,117.044Z" style="fill:rgb(0,204,0);stroke:black;stroke-width:5.85px;"/>
    </g>
    <g transform="matrix(-0.734724,0.347302,0.427358,0.904083,143.525,64.8116)">
        <path d="M95.096,117.044C95.096,115.398 93.452,114.062 91.427,114.062L13.923,114.062C11.898,114.062 10.253,115.398 10.253,117.044L10.253,123.008C10.253,124.654 11.898,125.991 13.923,125.991L91.427,125.991C93.452,125.991 95.096,124.654 95.096,123.008L95.096,117.044Z" style="fill:rgb(0,204,0);stroke:black;stroke-width:5.85px;"/>
    </g>
    <g transform="matrix(-0.717937,0.339367,0.427358,0.904083,62.3524,-85.107)">
        <path d="M95.096,117.044C95.096,115.398 93.413,114.062 91.341,114.062L14.009,114.062C11.936,114.062 10.253,115.398 10.253,117.044L10.253,123.008C10.253,124.654 11.936,125.991 14.009,125.991L91.341,125.991C93.413,125.991 95.096,124.654 95.096,123.008L95.096,117.044Z" style="fill:rgb(0,204,0);stroke:black;stroke-width:5.91px;"/>
    </g>
</svg>
